<?xml version="1.0" encoding="UTF-8"?>
<svg id="Layer_2" data-name="Layer 2" xmlns="http://www.w3.org/2000/svg" viewBox="0 0 375.2 95">
  <g id="Layer_1-2" data-name="Layer 1">
    <g>
      <path class="cls-1" d="M11.9,10.5l-1.1,45.5c-.07,1.4.03,2.48.3,3.25.27.77.75,1.37,1.45,1.8.7.43,1.75.78,3.15,1.05l2.6.5-.5,2.8c-3.4-.27-6.47-.4-9.2-.4-2.47,0-5.33.13-8.6.4l.6-2.8,1.5-.4c1.93-.4,3.15-1,3.65-1.8.5-.8.78-2.27.85-4.4l1.5-47.5c.07-1.13.02-1.98-.15-2.55-.17-.57-.58-1.07-1.25-1.5-.67-.43-1.77-.85-3.3-1.25l-1.9-.4.5-2.8c2.13.27,4.5.4,7.1.4,1.93,0,4.3-.13,7.1-.4l23,53.9L61.4,0c1.13.2,2.43.3,3.9.3.87,0,2.03-.07,3.5-.2l1.3,56c.07,1.4.18,2.45.35,3.15.17.7.58,1.27,1.25,1.7.67.43,1.73.82,3.2,1.15l2,.5-.6,2.8c-2.47-.27-5.87-.4-10.2-.4-4.07,0-7.67.13-10.8.4l.5-2.8,1.8-.4c1.87-.4,3.08-1.03,3.65-1.9.57-.87.82-2.3.75-4.3l-1.2-44.7-22.3,54.6h-2.8L11.9,10.5Z"/>
      <path class="cls-1" d="M78.6,93.75c-.93-.83-1.4-1.88-1.4-3.15,0-.73.18-1.5.55-2.3.37-.8.85-1.5,1.45-2.1l3.4-.5c.87.4,1.75.71,2.65.95.9.23,1.55.35,1.95.35.53,0,1-.13,1.4-.4.4-.27.87-.87,1.4-1.8.53-.93,1.2-2.33,2-4.2l6.5-15.5-12.8-29.9c-.93-2.2-2.03-3.88-3.3-5.05-1.27-1.17-2.83-1.95-4.7-2.35l-1.8-.4.5-2.4c2.8.2,5.93.3,9.4.3,2.87,0,6.5-.1,10.9-.3l-.4,2.5-2.1.3c-.73.07-1.28.32-1.65.75-.37.43-.55.95-.55,1.55,0,.67.3,1.77.9,3.3l.4,1.1,9,21.7,8.9-22.4c.6-1.53.9-2.63.9-3.3,0-.6-.2-1.07-.6-1.4-.4-.33-1.07-.63-2-.9l-1.9-.5.5-2.7c2.2.2,4.9.3,8.1.3,3.67,0,6.53-.1,8.6-.3l-.5,2.6-3.1.8c-1.73.4-3.13,1.04-4.2,1.9-1.07.87-1.93,2.1-2.6,3.7l-19.4,47.1c-2.07,4.93-4.02,8.48-5.85,10.65-1.83,2.17-4.12,3.25-6.85,3.25-1.53,0-2.77-.42-3.7-1.25Z"/>
      <path class="cls-1" d="M125.1,62.6l1.7-.4c1.93-.4,3.18-.97,3.75-1.7.57-.73.85-1.93.85-3.6V8.5c0-1.13-.08-2-.25-2.6-.17-.6-.6-1.13-1.3-1.6-.7-.47-1.82-.83-3.35-1.1l-1.8-.4.5-2.8c2.6.27,6.03.4,10.3.4,1.47,0,3.6-.07,6.4-.2,3.33-.13,6.5-.2,9.5-.2,4.13,0,7.8.83,11,2.5,3.2,1.67,5.68,3.98,7.45,6.95,1.77,2.97,2.65,6.32,2.65,10.05s-.9,7.35-2.7,10.45c-1.8,3.1-4.17,5.52-7.1,7.25-2.93,1.73-6.04,2.6-9.3,2.6-2.07,0-3.93-.37-5.6-1.1l.3-1.4c3.4-.13,6.32-1.07,8.75-2.8,2.43-1.73,4.27-4,5.5-6.8,1.23-2.8,1.85-5.77,1.85-8.9,0-4.6-1.38-8.32-4.15-11.15-2.77-2.83-6.72-4.25-11.85-4.25-3.2,0-5.45.38-6.75,1.15-1.3.77-1.95,2.05-1.95,3.85v48.5c0,1.13.12,2,.35,2.6.23.6.73,1.1,1.5,1.5.77.4,1.98.77,3.65,1.1l2.5.5-.5,2.8c-3.87-.27-7.73-.4-11.6-.4s-7.6.13-10.8.4l.5-2.8Z"/>
      <path class="cls-1" d="M177.15,63.1c-1.83-1.87-2.75-4.1-2.75-6.7,0-1.27.27-2.5.8-3.7.53-1.2,1.27-2.17,2.2-2.9,6.27-1.73,12.17-3.07,17.7-4v-1c0-3.33-.13-6.05-.4-8.15-.27-2.1-.9-3.85-1.9-5.25-1-1.4-2.54-2.1-4.6-2.1-1.2,0-2.38.27-3.55.8-1.17.53-1.98,1.2-2.45,2-.33,2.27-.5,4.5-.5,6.7l-1.7,1.2-4.7-.8c-.2-.27-.3-.8-.3-1.6,0-.93.35-1.9,1.05-2.9.7-1,1.65-2.1,2.85-3.3,1.93-1.93,4.08-3.57,6.45-4.9,2.37-1.33,4.65-2,6.85-2,3.33,0,5.87,1.25,7.6,3.75,1.73,2.5,2.6,6.28,2.6,11.35v16.9c0,1.53.17,2.6.5,3.2.33.6.93.9,1.8.9.93,0,2.3-.4,4.1-1.2l1,1.7c-1.47,1.47-2.98,2.63-4.55,3.5-1.57.87-3.08,1.3-4.55,1.3s-2.72-.4-3.75-1.2c-1.03-.8-1.65-1.93-1.85-3.4-1.87,1.53-3.67,2.68-5.4,3.45-1.73.77-3.57,1.15-5.5,1.15-2.87,0-5.22-.93-7.05-2.8ZM191.95,60.5c1.17-.4,2.22-1,3.15-1.8v-10.3c-4.2.67-7.7,1.47-10.5,2.4-.93.33-1.62.83-2.05,1.5-.43.67-.65,1.53-.65,2.6,0,1.87.63,3.37,1.9,4.5,1.27,1.13,2.83,1.7,4.7,1.7,1.13,0,2.28-.2,3.45-.6Z"/>
      <path class="cls-1" d="M213.7,62.7l1.8-.3c1.67-.33,2.75-.88,3.25-1.65.5-.77.75-1.92.75-3.45v-19.4c0-1.8-.35-3.25-1.05-4.35-.7-1.1-2.05-2.25-4.05-3.45l.5-1.9c3.4-.53,6.87-2,10.4-4.4l1.8.9v5.6c2.4-1.87,4.77-3.3,7.1-4.3,2.33-1,4.73-1.5,7.2-1.5,3.07,0,5.5.65,7.3,1.95,1.8,1.3,3.13,3.12,4,5.45.47,1.4.8,2.93,1,4.6.2,1.67.3,3.9.3,6.7,0,4.2-.07,7.23-.2,9.1,0,1.73-.04,3.47-.1,5.2,0,1.53.27,2.62.8,3.25.53.63,1.63,1.12,3.3,1.45l2,.5-.5,2.7c-2.6-.27-5.73-.4-9.4-.4s-7,.13-10.2.4l.5-2.7,1.7-.3c1.47-.27,2.48-.75,3.05-1.45.57-.7.92-1.88,1.05-3.55.2-1.53.3-4.53.3-9,0-4.13-.09-7.21-.25-9.25-.17-2.03-.62-3.71-1.35-5.05-1.33-2.8-3.87-4.2-7.6-4.2-1.67,0-3.37.3-5.1.9-1.73.6-3.37,1.4-4.9,2.4v24.1c0,1.53.25,2.65.75,3.35.5.7,1.68,1.25,3.55,1.65l1.9.4-.5,2.7c-2.6-.27-5.77-.4-9.5-.4-3.53,0-6.9.13-10.1.4l.5-2.7Z"/>
      <path class="cls-1" d="M269.65,63.5c-1.97-1.67-2.95-3.87-2.95-6.6v-26.9l-4.7-.2-.9-1.7,11.4-9.8,1.8.9v5.6l14.2.6v4l-14.2.3v24.4c0,2.4.7,4.22,2.1,5.45,1.4,1.23,3.43,1.85,6.1,1.85,1.13,0,2.23-.07,3.3-.2,1.07-.13,2.17-.4,3.3-.8l1,1.9c-1.87,1.07-3.95,1.95-6.25,2.65-2.3.7-4.42,1.05-6.35,1.05-3.27,0-5.88-.83-7.85-2.5Z"/>
      <path class="cls-1" d="M293.9,62.7l1.8-.3c1.67-.27,2.77-.8,3.3-1.6.53-.8.8-2,.8-3.6v-19.3c0-1.8-.37-3.25-1.1-4.35-.73-1.1-2.1-2.25-4.1-3.45l.5-1.9c1.8-.27,3.48-.77,5.05-1.5,1.57-.73,3.22-1.7,4.95-2.9l1.9.9.4,6.5,1.1-.9c1.4-1.2,2.67-2.13,3.8-2.8,1.53-1,2.87-1.75,4-2.25,1.13-.5,2.27-.75,3.4-.75,1.47,0,2.58.38,3.35,1.15.77.77,1.15,1.75,1.15,2.95,0,.87-.18,1.7-.55,2.5-.37.8-.88,1.57-1.55,2.3l-3.1.5c-.8-.73-1.73-1.33-2.8-1.8-1.07-.47-1.97-.7-2.7-.7-1.67,0-3.7.9-6.1,2.7v23.1c0,1.07.08,1.9.25,2.5.17.6.58,1.12,1.25,1.55.67.43,1.73.78,3.2,1.05l2.3.4-.4,2.7c-2.67-.27-6.03-.4-10.1-.4-3.73,0-7.2.13-10.4.4l.4-2.7Z"/>
      <path class="cls-1" d="M329,93.75c-.93-.83-1.4-1.88-1.4-3.15,0-.73.18-1.5.55-2.3.37-.8.85-1.5,1.45-2.1l3.4-.5c.87.4,1.75.71,2.65.95.9.23,1.55.35,1.95.35.53,0,1-.13,1.4-.4.4-.27.87-.87,1.4-1.8.53-.93,1.2-2.33,2-4.2l6.5-15.5-12.8-29.9c-.93-2.2-2.03-3.88-3.3-5.05-1.27-1.17-2.83-1.95-4.7-2.35l-1.8-.4.5-2.4c2.8.2,5.93.3,9.4.3,2.87,0,6.5-.1,10.9-.3l-.4,2.5-2.1.3c-.73.07-1.28.32-1.65.75-.37.43-.55.95-.55,1.55,0,.67.3,1.77.9,3.3l.4,1.1,9,21.7,8.9-22.4c.6-1.53.9-2.63.9-3.3,0-.6-.2-1.07-.6-1.4-.4-.33-1.07-.63-2-.9l-1.9-.5.5-2.7c2.2.2,4.9.3,8.1.3,3.67,0,6.53-.1,8.6-.3l-.5,2.6-3.1.8c-1.73.4-3.13,1.04-4.2,1.9-1.07.87-1.93,2.1-2.6,3.7l-19.4,47.1c-2.07,4.93-4.02,8.48-5.85,10.65-1.83,2.17-4.12,3.25-6.85,3.25-1.53,0-2.77-.42-3.7-1.25Z"/>
    </g>
  </g>
</svg>